Coordinates
version=1
nRows=54
nColumns=12
inDegrees=yes

Units are S.I. units (second, meters, Newtons, ...)
Angles are in degrees

endheader
time	SC_y	SC_z	SC_x	AC_y	AC_z	AC_x	GH_y	GH_z	GH_yy	EL_x	PS_y
       0.0              -59.69          3.383          44.63          64.91         -7.941          10.21         -31.64          64.32         -143.0          120.7          90.42
  0.001447              -59.69          3.386          44.63          64.91         -7.939          10.21         -31.65          64.32         -143.0          120.7          90.42
  0.002895              -59.69          3.389          44.63          64.91         -7.937          10.21         -31.67          64.32         -142.9          120.7          90.41
  0.004342              -59.69          3.393          44.64          64.91         -7.935          10.21         -31.68          64.32         -142.9          120.7          90.41
  0.005789              -59.69          3.397          44.64           64.9         -7.933          10.21          -31.7          64.32         -142.9          120.7           90.4
  0.007237              -59.69          3.401          44.64           64.9          -7.93          10.21         -31.71          64.33         -142.8          120.7          90.39
  0.008684              -59.69          3.406          44.64           64.9         -7.928          10.22         -31.73          64.33         -142.8          120.7          90.38
   0.01013              -59.69          3.411          44.64           64.9         -7.925          10.22         -31.75          64.33         -142.7          120.7          90.38
   0.01158              -59.69          3.416          44.64          64.89         -7.922          10.22         -31.77          64.33         -142.7          120.7          90.37
   0.01303              -59.69          3.422          44.64          64.89         -7.918          10.22         -31.79          64.33         -142.6          120.7          90.36
   0.01447              -59.69          3.427          44.65          64.89         -7.915          10.22         -31.82          64.33         -142.6          120.7          90.35
   0.01592              -59.69          3.434          44.65          64.88         -7.911          10.22         -31.84          64.33         -142.5          120.7          90.34
   0.01737              -59.69          3.441          44.65          64.88         -7.907          10.22         -31.87          64.33         -142.5          120.6          90.33
   0.01882              -59.69          3.448          44.65          64.87         -7.903          10.23          -31.9          64.33         -142.4          120.6          90.32
   0.02026              -59.69          3.456          44.65          64.87         -7.898          10.23         -31.93          64.33         -142.3          120.6           90.3
   0.02171              -59.69          3.465          44.66          64.86         -7.893          10.23         -31.96          64.33         -142.2          120.6          90.29
   0.02316              -59.69          3.475          44.66          64.86         -7.887          10.23          -32.0          64.33         -142.2          120.6          90.27
   0.02461              -59.69          3.485          44.66          64.85         -7.881          10.24         -32.04          64.34         -142.1          120.6          90.25
   0.02605              -59.69          3.497          44.67          64.84         -7.875          10.24         -32.08          64.34         -142.0          120.6          90.24
    0.0275              -59.69          3.509          44.67          64.84         -7.867          10.24         -32.13          64.34         -141.8          120.5          90.22
   0.02895              -59.69          3.523          44.67          64.83         -7.859          10.24         -32.18          64.34         -141.7          120.5          90.19
   0.03039              -59.69          3.538          44.68          64.82          -7.85          10.25         -32.24          64.34         -141.6          120.5          90.17
   0.03184              -59.69          3.554          44.68          64.81         -7.841          10.25          -32.3          64.34         -141.4          120.5          90.14
   0.03329              -59.69          3.573          44.69           64.8          -7.83          10.26         -32.38          64.35         -141.3          120.4          90.11
   0.03474              -59.69          3.593           44.7          64.79         -7.818          10.26         -32.45          64.35         -141.1          120.4          90.08
   0.03618              -59.69          3.616           44.7          64.77         -7.805          10.27         -32.54          64.35         -140.9          120.4          90.04
   0.03763              -59.68          3.642          44.71          64.76          -7.79          10.27         -32.64          64.35         -140.6          120.3           90.0
   0.03908              -59.68          3.671          44.72          64.74         -7.773          10.28         -32.75          64.36         -140.4          120.3          89.95
   0.04053              -59.68          3.703          44.73          64.72         -7.754          10.29         -32.88          64.36         -140.1          120.2           89.9
   0.04197              -59.68           3.74          44.74           64.7         -7.732           10.3         -33.02          64.37         -139.7          120.2          89.84
   0.04342              -59.68          3.782          44.75          64.67         -7.708          10.31         -33.18          64.37         -139.3          120.1          89.77
   0.04487              -59.68           3.83          44.77          64.64         -7.679          10.32         -33.37          64.38         -138.9          120.0          89.69
   0.04632              -59.68          3.886          44.78          64.61         -7.647          10.33         -33.59          64.38         -138.4          120.0           89.6
   0.04776              -59.67          3.951           44.8          64.57         -7.609          10.35         -33.84          64.39         -137.8          119.9          89.49
   0.04921              -59.67          4.027          44.83          64.52         -7.564          10.37         -34.13           64.4         -137.1          119.7          89.36
   0.05066              -59.67          4.117          44.85          64.47         -7.512          10.39         -34.47          64.41         -136.3          119.6          89.22
   0.05211              -59.66          4.223          44.89          64.41          -7.45          10.41         -34.88          64.42         -135.3          119.4          89.04
   0.05355              -59.66          4.351          44.92          64.33         -7.375          10.45         -35.38          64.44         -134.1          119.2          88.83
     0.055              -59.65          4.505          44.97          64.24         -7.285          10.48         -35.97          64.46         -132.7          119.0          88.58
   0.05645              -59.64          4.693          45.03          64.12         -7.175          10.53          -36.7          64.48         -131.0          118.7          88.27
   0.05789              -59.63          4.926           45.1          63.98         -7.039          10.59          -37.6           64.5         -128.9          118.4          87.89
   0.05934              -59.62          5.216          45.19          63.81          -6.87          10.66         -38.72          64.54         -126.2          117.9          87.41
   0.06079              -59.61          5.581           45.3          63.59         -6.656          10.75         -40.13          64.58         -122.8          117.3          86.81
   0.06224              -59.59          6.046          45.44          63.31         -6.385          10.86         -41.92          64.64         -118.6          116.6          86.05
   0.06368              -59.57           6.64          45.62          62.95         -6.037           11.0         -44.21          64.71         -113.1          115.7          85.07
   0.06513              -59.54          7.403          45.85          62.49         -5.591          11.19         -47.15           64.8         -106.2          114.5          83.82
   0.06658               -59.5          8.377          46.14           61.9         -5.022          11.43         -50.91          64.91         -97.23          113.0          82.22
   0.06803              -59.45          9.603          46.51          61.16         -4.306          11.73         -55.64          65.06          -86.0          111.2          80.21
   0.06947               -59.4           11.1          46.96          60.26         -3.433          12.09          -61.4          65.23         -72.32          108.9          77.76
   0.07092              -59.33          12.83          47.48          59.22         -2.421          12.51         -68.08          65.43         -56.46          106.2          74.92
   0.07237              -59.26           14.7          48.05          58.09         -1.326          12.97         -75.31          65.66         -39.28          103.3          71.84
   0.07382              -59.19          16.57          48.61          56.96        -0.2306          13.42         -82.54          65.88         -22.11          100.4          68.76
   0.07526              -59.12          18.31          49.14          55.91          0.781          13.85         -89.22          66.08         -6.253          97.75          65.92
   0.07671              -59.06           19.8          49.59          55.01          1.654          14.21         -94.98          66.26          7.429          95.45          63.47
